<svg width="256" height="256" viewBox="0 0 256 256" fill="none" xmlns="http://www.w3.org/2000/svg">
<rect width="256" height="256" fill="#414042"/>
<path d="M151 75.0003C158.268 75.0069 166.367 76.9551 173 80.0003C179.633 83.0459 185.155 87.446 190 93.0003L205 79.0003C195.291 67.9292 183.105 59.5357 169 56.0003C154.895 52.4644 139.595 53.7708 126 59.0003C112.405 64.2298 100.357 73.8246 91.9999 86.0003C83.6425 98.1763 79.2125 112.113 78.9999 127C78.7873 141.888 82.994 157.579 90.9999 170C99.0061 182.422 110.56 191.365 124 197C137.44 202.635 151.8 204.111 166 201C180.199 197.89 193.979 190.775 204 180L189 165C183.095 171.332 175.125 176.289 167 179C158.875 181.711 150.408 182.557 142 181C133.591 179.444 125.688 175.453 119 170C112.312 164.547 107.373 158.05 104 150C100.627 141.951 98.2547 132.728 98.9999 124C99.7454 115.272 103.314 106.326 108 99.0003C112.686 91.6742 119.49 86.1782 127 82.0003C134.51 77.822 142.456 75.0347 151 75.0003Z" fill="black"/>
<path d="M83 57L68 42C56.2759 53.2087 47.3485 66.3271 41 81C34.6519 95.6725 31 112.11 31 128C31 143.89 34.6519 159.327 41 174C47.3485 188.673 56.2759 201.791 68 213L83 198C73.2251 188.72 65.2969 178.182 60 166C54.7034 153.818 52 141.202 52 128C52 114.798 54.7034 101.182 60 89C65.2969 76.8177 73.2251 66.2797 83 57Z" fill="white"/>
<path d="M225 29.0001C204.413 13.2894 179.536 4.96804 154 5.00009V26.0001C175.07 25.98 195.978 33.0856 213 46.0001L225 29.0001Z" fill="white"/>
<path d="M154 230V251C177.793 251.027 201.078 243.973 221 231L209 214C192.537 224.652 173.624 230.027 154 230Z" fill="white"/>
<path d="M156 205C139.892 204.989 124.196 199.013 111 190C97.8033 180.987 87.5242 168.764 82 154L63 162C70.2373 180.334 82.3988 196.881 99 208C115.601 219.12 135.863 224.999 156 225V205Z" fill="white"/>
<path d="M77.5425 122.496C79.309 102.966 89.3375 85.2139 103.878 72.1732C118.418 59.133 136.956 52.0583 156.413 52.5531L156.966 31.5604C132.051 30.9018 107.784 39.9541 89.2781 56.7825C70.7725 73.6113 59.4448 96.9277 57.5495 121.968L77.5425 122.496Z" fill="white"/>
<g opacity="0.1">
<path opacity="0.1" d="M183 156V157H182" stroke="#4C6ADB" stroke-miterlimit="10"/>
<path opacity="0.1" d="M179 157H127" stroke="#4C6ADB" stroke-miterlimit="10" stroke-dasharray="5.77 5.77"/>
<path opacity="0.1" d="M125 157H124V156" stroke="#4C6ADB" stroke-miterlimit="10"/>
<path opacity="0.1" d="M124 153V101" stroke="#4C6ADB" stroke-miterlimit="10" stroke-dasharray="5.77 5.77"/>
<path opacity="0.1" d="M124 99V98H125" stroke="#4C6ADB" stroke-miterlimit="10"/>
<path opacity="0.1" d="M128 98H180" stroke="#4C6ADB" stroke-miterlimit="10" stroke-dasharray="5.77 5.77"/>
<path opacity="0.1" d="M182 98H183V99" stroke="#4C6ADB" stroke-miterlimit="10"/>
<path opacity="0.1" d="M183 102V154" stroke="#4C6ADB" stroke-miterlimit="10" stroke-dasharray="5.77 5.77"/>
</g>
<path d="M153 104L163 109L168 106L153 98L129 112L134 115L153 104Z" fill="#FF0000"/>
<path d="M173 109L154 120L144 115L139 118L154 126L178 112L173 109Z" fill="#FF0000"/>
<path d="M133 129L128 126V143L153 157V151L133 140V129Z" fill="#FF0000"/>
<path d="M128 120L148 131V142L153 145V128L128 114V120Z" fill="#FF0000"/>
<path d="M169 126V120L154 129V157L159 154V131L169 126Z" fill="#FF0000"/>
<path d="M174 117V140L164 145V151L179 142V114L174 117Z" fill="#FF0000"/>
</svg>
